<svg id="3103:129" layer-name="Objects" width="17" height="18" viewBox="0 0 17 18" fill="none" xmlns="http://www.w3.org/2000/svg" class="w-[17px] h-[18px]">
  <g clip-path="url(#clip0_3103_129)">
    <path d="M2.1435 4.3331C1.72669 5.78797 2.34373 6.89684 3.40897 7.19385C4.47597 7.49217 5.32506 6.79536 5.74011 5.33961C6.15603 3.88211 5.98321 2.21946 4.91621 1.92114C3.85186 1.62238 2.55987 2.87516 2.14394 4.33266L2.1435 4.3331Z" fill="#44C2F1"></path>
    <path d="M11.196 10.5389C11.2247 10.0682 11.1734 9.61635 11.0417 9.20036C10.7902 8.41562 10.2514 7.75774 9.44297 7.333C8.20359 6.68649 6.83116 6.87152 5.7593 7.70262C5.17496 8.15886 4.43416 8.37232 3.69601 8.29008C3.23765 8.23803 2.7762 8.28177 2.34347 8.41431C1.53239 8.66014 0.815014 9.21349 0.387594 10.0144C-0.471666 11.6163 0.148026 13.6026 1.76665 14.4486C2.72448 14.9538 3.42462 14.8296 4.06597 14.7653C4.50577 14.7211 4.92081 14.7071 5.37121 14.9459C6.48595 15.5273 6.19555 16.7709 7.81418 17.6168C9.43281 18.4672 11.4391 17.8557 12.2952 16.2547C12.9529 15.0242 12.7421 13.5667 11.8767 12.5747C11.386 12.0113 11.1478 11.279 11.196 10.5389Z" fill="#44C2F1"></path>
    <path d="M10.5397 0.153558C9.4669 -0.407657 7.79302 0.642598 7.00979 2.10666C6.22567 3.57246 6.6279 4.89786 7.7002 5.45907C8.77207 6.02204 9.84349 5.46607 10.6263 4.00201C11.4104 2.53621 11.612 0.714773 10.5392 0.153558H10.5397Z" fill="#44C2F1"></path>
    <path d="M16.5102 7.99481C15.662 7.28925 14.1734 8.08317 13.1899 9.24278C12.2082 10.4033 12.1021 11.4876 12.9512 12.1919C13.7994 12.8975 15.0724 12.7794 16.0559 11.6197C17.0376 10.4593 17.3593 8.69907 16.5102 7.99481Z" fill="#44C2F1"></path>
    <path d="M11.9888 7.70522C13.0606 8.26819 14.3968 7.85132 15.1801 6.38726C15.9642 4.92146 15.9005 2.96092 14.8265 2.39839C13.7537 1.83718 12.3455 3.02479 11.5618 4.49059C10.7777 5.9564 10.9165 7.14357 11.9892 7.70479L11.9888 7.70522Z" fill="#44C2F1"></path>
  </g>
  <defs>
    <clipPath id="clip0_3103_129">
      <rect width="17" height="18" fill="white"></rect>
    </clipPath>
  </defs>
</svg>
