<svg id="logo" role="img" aria-label="PetsieIQ Logo" width="439" height="118" viewBox="0 0 439 118"
                fill="none" xmlns="http://www.w3.org/2000/svg"
                class="w-[439px] h-[118px] mt-[60px] max-lg:w-[350px] max-lg:h-[94px] max-sm:w-[280px] max-sm:h-[75px] max-sm:mt-[40px]"
                style="max-width: 100%; height: auto;">
                <g clip-path="url(#clip0_3103_191)">
                    <path
                        d="M160.037 99.4387C159.245 102.728 156.447 105.476 152.501 105.476C148.119 105.476 144.279 101.632 144.279 96.6908C144.279 91.7499 148.119 87.9055 152.501 87.9055C156.342 87.9055 159.113 90.6534 159.905 93.9429H157.16C156.579 91.882 155.022 90.2306 152.501 90.2306C149.65 90.2306 146.879 92.9521 146.879 96.6776C146.879 100.403 149.65 103.124 152.501 103.124C155.167 103.124 156.724 101.447 157.305 99.4122H160.05L160.037 99.4387Z"
                        fill="#253B59"></path>
                    <path
                        d="M161.542 99.1744C161.542 95.4754 164.141 92.8596 167.441 92.8596C170.74 92.8596 173.34 95.4622 173.34 99.1744C173.34 102.887 170.74 105.489 167.441 105.489C164.141 105.489 161.542 102.887 161.542 99.1744ZM170.859 99.1744C170.859 96.8361 169.209 95.1979 167.428 95.1979C165.646 95.1979 163.996 96.8493 163.996 99.1744C163.996 101.5 165.646 103.151 167.428 103.151C169.209 103.151 170.859 101.5 170.859 99.1744Z"
                        fill="#253B59"></path>
                    <path
                        d="M184.427 104.115C184.176 104.366 183.912 104.604 183.582 104.802C183.001 105.159 182.104 105.489 180.863 105.489C177.577 105.489 174.964 102.887 174.964 99.1744C174.964 95.4622 177.564 92.8596 180.863 92.8596C182.038 92.8596 182.869 93.2163 183.437 93.5466C183.767 93.7447 184.044 93.9825 184.282 94.2336V88.0641H186.75V105.357H184.968L184.414 104.129L184.427 104.115ZM184.559 99.1744C184.559 96.8361 182.883 95.1979 180.995 95.1979C179.108 95.1979 177.432 96.8493 177.432 99.1744C177.432 101.5 179.108 103.151 180.995 103.151C182.883 103.151 184.559 101.5 184.559 99.1744Z"
                        fill="#253B59"></path>
                    <path
                        d="M200.462 101.777C199.67 103.838 197.994 105.489 195.117 105.489C191.83 105.489 189.217 102.887 189.217 99.1744C189.217 95.4622 191.791 92.8596 194.972 92.8596C198.152 92.8596 200.726 95.4622 200.726 99.1744C200.726 99.4783 200.673 99.7557 200.647 99.9407L200.594 100.271H191.817C191.949 101.803 193.322 103.151 195.104 103.151C196.608 103.151 197.44 102.332 197.849 101.777H200.449H200.462ZM198.403 98.21C198.099 96.4266 196.925 95.1847 194.972 95.1847C193.322 95.1847 192.121 96.4134 191.817 98.21H198.403Z"
                        fill="#253B59"></path>
                    <path
                        d="M211.838 104.115C211.588 104.366 211.324 104.604 210.994 104.802C210.413 105.159 209.516 105.489 208.275 105.489C204.989 105.489 202.375 102.887 202.375 99.1744C202.375 95.4622 204.975 92.8596 208.275 92.8596C209.45 92.8596 210.281 93.2163 210.849 93.5466C211.178 93.7447 211.456 93.9825 211.693 94.2336V88.0641H214.161V105.357H212.379L211.825 104.129L211.838 104.115ZM211.97 99.1744C211.97 96.8361 210.294 95.1979 208.407 95.1979C206.52 95.1979 204.843 96.8493 204.843 99.1744C204.843 101.5 206.52 103.151 208.407 103.151C210.294 103.151 211.97 101.5 211.97 99.1744Z"
                        fill="#253B59"></path>
                    <path
                        d="M224.165 95.3301H221.975V92.9917H222.938C223.901 92.9917 224.588 92.3048 224.588 91.3404V89.689H226.647V92.9785H229.392V95.3169H226.647V101.222C226.647 102.319 227.465 103.138 228.574 103.138C228.758 103.138 228.956 103.111 229.154 103.085L229.405 103.006V105.199C229.299 105.251 229.154 105.304 229.022 105.331C228.745 105.41 228.415 105.463 228.032 105.463C225.842 105.463 224.192 103.811 224.192 101.209V95.3036L224.165 95.3301Z"
                        fill="#253B59"></path>
                    <path
                        d="M231.015 99.1744C231.015 95.4754 233.615 92.8596 236.915 92.8596C240.214 92.8596 242.814 95.4622 242.814 99.1744C242.814 102.887 240.214 105.489 236.915 105.489C233.615 105.489 231.015 102.887 231.015 99.1744ZM240.333 99.1744C240.333 96.8361 238.683 95.1979 236.901 95.1979C235.12 95.1979 233.47 96.8493 233.47 99.1744C233.47 101.5 235.12 103.151 236.901 103.151C238.683 103.151 240.333 101.5 240.333 99.1744Z"
                        fill="#253B59"></path>
                    <path
                        d="M265.963 99.4387C265.171 102.728 262.373 105.476 258.427 105.476C254.045 105.476 250.205 101.632 250.205 96.6908C250.205 91.7499 254.045 87.9055 258.427 87.9055C262.267 87.9055 265.039 90.6534 265.831 93.9429H263.086C262.505 91.882 260.948 90.2306 258.427 90.2306C255.576 90.2306 252.805 92.9521 252.805 96.6776C252.805 100.403 255.576 103.124 258.427 103.124C261.093 103.124 262.65 101.447 263.231 99.4122H265.976L265.963 99.4387Z"
                        fill="#253B59"></path>
                    <path
                        d="M275.426 104.115C275.175 104.366 274.911 104.604 274.581 104.802C274.001 105.159 273.103 105.489 271.863 105.489C269.117 105.489 267.613 103.983 267.613 101.777C267.613 99.3066 269.263 97.6552 275.294 97.6552V97.2456C275.294 96.0038 274.502 95.1847 272.958 95.1847C271.308 95.1847 270.622 95.8453 270.49 96.6908H268.022C268.154 94.4978 269.909 92.8464 272.958 92.8464C275.835 92.8464 277.762 94.762 277.762 97.2324V105.331H275.98L275.426 104.102V104.115ZM275.281 99.8614C270.899 99.8614 270.068 100.68 270.068 101.922C270.068 102.609 270.754 103.296 271.981 103.296C274.067 103.296 275.268 102.068 275.268 100.522V99.8614H275.281Z"
                        fill="#253B59"></path>
                    <path
                        d="M280.626 92.9917H282.408L282.962 94.2336C283.186 93.9825 283.45 93.7447 283.754 93.5466C284.269 93.2163 285.047 92.8596 286.116 92.8596C286.42 92.8596 286.578 92.9125 286.723 92.9389L286.948 92.9917V95.4622L286.697 95.4093C286.499 95.3829 286.314 95.3301 286.116 95.3301C284.44 95.3301 283.094 96.7304 283.094 98.3554V105.357H280.626V93.0049V92.9917Z"
                        fill="#253B59"></path>
                    <path
                        d="M299.406 101.777C298.614 103.838 296.938 105.489 294.061 105.489C290.775 105.489 288.162 102.887 288.162 99.1744C288.162 95.4622 290.735 92.8596 293.916 92.8596C297.097 92.8596 299.67 95.4622 299.67 99.1744C299.67 99.4783 299.617 99.7557 299.591 99.9407L299.538 100.271H290.762C290.894 101.803 292.266 103.151 294.048 103.151C295.552 103.151 296.384 102.332 296.793 101.777H299.393H299.406ZM297.347 98.21C297.044 96.4266 295.869 95.1847 293.916 95.1847C292.266 95.1847 291.065 96.4134 290.762 98.21H297.347Z"
                        fill="#253B59"></path>
                    <path
                        d="M109.133 70.5464C107.47 69.2253 105.371 71.3654 104.355 72.6073C99.5512 78.4729 102.811 85.8182 101.834 92.5558C101.491 94.9469 100.594 97.7873 98.7065 99.3726C99.0893 98.4346 99.2477 97.4174 99.3268 96.4001C99.6832 92.1859 99.7096 87.998 98.1786 84.0083C97.6111 82.5419 96.806 81.1679 96.1857 79.728C95.5259 78.1823 95.1431 76.6102 94.2985 75.1173C93.9817 74.5625 93.5594 74.0605 93.2558 73.5056C91.8569 71.0087 92.6091 68.2344 91.6853 65.5791C91.2234 64.2315 90.4447 63.3464 89.798 62.1706C88.8741 60.4928 89.6792 59.2774 90.0356 57.6129C90.8406 53.8213 88.6894 51.2188 87.4356 47.9293C86.5513 45.6041 86.261 43.3054 84.862 41.1388C84.1757 40.082 83.0143 38.2192 81.8001 39.8177C80.5727 41.4163 80.8894 44.032 80.4539 45.8683C80.0976 47.3876 78.6458 47.2951 77.4052 47.85C76.5474 48.2199 74.8052 49.6335 74.119 49.6599C72.588 49.7259 70.5951 47.1234 68.9586 47.1366C67.0713 47.1366 68.1535 49.6731 68.5627 50.6111C69.3281 52.3681 70.318 53.8081 71.2814 55.4331C72.1261 56.8334 71.7169 57.494 71.9281 58.9736C72.1657 60.7042 73.0235 61.8139 73.5778 63.3332C74.0266 64.575 73.591 65.7508 73.525 67.019C73.4459 68.3798 73.6306 69.8594 73.525 71.2069C73.4459 72.2109 72.72 73.532 72.39 74.5361C71.9809 75.7647 71.7037 77.0461 71.321 78.3012C69.9748 78.1691 68.6286 78.4201 67.3485 79.0146C67.0185 79.1599 66.0947 79.9525 65.8967 79.2788C65.7779 78.8692 66.0815 77.7463 66.1474 77.2575C67.4672 67.2436 67.7972 56.7145 64.2602 47.1234C63.2175 44.2962 61.9241 41.9843 61.4358 38.9194C61.1719 37.2284 61.3038 36.5811 63.1647 36.3961C63.1515 36.5546 63.1779 36.9642 63.2043 37.1756C63.2307 37.3869 63.6135 38.9194 63.8774 39.7253C63.9038 39.8045 63.9302 39.8706 63.9566 39.9499C63.9566 39.9763 64.0094 40.0688 64.0226 40.1084C64.0754 40.2405 64.1414 40.3594 64.1942 40.4915C64.2602 40.6368 64.3393 40.7689 64.4317 40.901C64.4845 40.9803 64.5241 41.0464 64.5769 41.1256C64.5769 41.1256 64.6297 41.1917 64.6561 41.2313C64.6429 41.2049 64.7485 41.3502 64.7617 41.3634C64.8145 41.4295 64.8805 41.4955 64.9332 41.5484C65.0124 41.6409 65.1048 41.7069 65.1972 41.7862C65.2236 41.8126 65.3028 41.8654 65.3292 41.8786C65.382 41.9051 65.4348 41.9447 65.4876 41.9711C65.5272 41.9843 65.5535 42.0108 65.5931 42.024L65.7779 42.09C65.7779 42.09 65.8967 42.1164 65.9495 42.1297C65.9759 42.1297 65.9891 42.1297 66.0155 42.1297C66.0815 42.1297 66.1343 42.1297 66.2002 42.1297C66.2266 42.1297 66.3322 42.1164 66.3718 42.1032C66.5038 42.0768 66.6358 42.0504 66.7677 41.9975C66.7941 41.9975 66.8205 41.9711 66.8601 41.9711C66.8601 41.9711 66.8601 41.9711 66.8733 41.9711C70.1464 37.6115 78.7118 36.8321 76.2702 30.2266C75.8611 29.1169 75.1088 27.9808 74.6469 26.8182C74.1322 25.5499 73.525 23.74 73.4327 22.3793C73.2611 19.8296 74.0134 16.0777 71.5454 14.3603C70.054 13.3298 68.5099 13.4884 66.8469 13.1977C66.2398 13.092 66.2134 12.9864 65.8307 12.5372C64.9992 11.5596 64.4185 10.648 63.4287 9.73646C60.4724 7.04143 54.9029 5.7864 51.0623 6.83006C49.3466 7.29244 48.238 8.11152 46.7202 8.77206C45.9152 9.12876 45.3081 8.71922 44.4898 8.56069C40.5832 7.79446 38.9335 8.78528 37.0066 12.1144C35.9376 13.964 35.4889 15.2586 33.9843 16.91C32.1366 18.9313 28.8899 20.6355 28.1245 23.2645C27.1082 26.7125 30.9488 29.4868 32.1894 32.3932C32.3874 32.8424 32.9681 34.4145 32.9945 34.507C33.0341 34.6787 33.0736 34.8372 33.1264 34.9958C33.1264 35.0222 33.1396 35.0486 33.1528 35.075C33.1528 35.075 33.1528 35.075 33.1528 35.1014C33.1792 35.1543 33.2056 35.2203 33.2452 35.2732C33.2848 35.3392 33.3244 35.3921 33.364 35.4581C33.364 35.4581 33.3772 35.4846 33.3904 35.4978C33.4432 35.5506 33.496 35.6035 33.5488 35.6695C33.5488 35.6695 33.5752 35.6959 33.5884 35.7091C33.6807 35.7752 33.7863 35.8413 33.8787 35.8941C33.8919 35.8941 33.9051 35.9073 33.9183 35.9073C33.9711 35.9337 34.0371 35.9469 34.0899 35.9734C34.2087 36.013 34.3406 36.0394 34.4594 36.0526C34.4594 36.0526 34.4594 36.0526 34.4858 36.0526C34.5518 36.0526 34.631 36.0526 34.697 36.0526C34.8422 36.0526 34.9741 36.0526 35.1193 36.0526C35.1589 36.0526 35.3173 36.0262 35.2645 36.0394C35.2909 36.0394 35.3173 36.0394 35.3569 36.0262C35.6472 35.9734 35.9376 35.8941 36.2147 35.7884C36.2411 35.7884 36.2675 35.762 36.2939 35.762C36.3599 35.7224 36.4523 35.6695 36.5183 35.6431C36.5975 35.5902 36.7558 35.4713 36.8746 35.3657C37.231 35.0486 37.4025 34.7447 37.7061 34.3748C37.9305 34.0314 38.1548 33.7407 38.366 33.3312C38.5771 32.9216 38.7751 32.195 38.8939 31.6138C39.0259 31.4949 39.8309 32.2347 39.9497 32.4064C40.7812 33.569 40.4776 36.2508 40.3457 37.6512C39.9629 41.9183 38.4716 44.217 37.1386 48.0481C34.0635 56.873 34.301 66.9266 35.4097 76.1082C35.4757 76.6762 35.8056 77.9973 35.7132 78.4597C35.6472 78.8164 35.2513 79.2127 34.8686 79.2127C34.5386 79.2127 33.7071 78.7371 33.3112 78.6182C29.9194 77.5746 26.4615 79.0674 25.3925 82.5287C23.3204 89.2795 30.9092 96.3605 34.1955 101.539C34.2747 101.658 34.499 102.015 34.7366 102.424C34.2219 102.345 33.6016 102.187 32.8625 101.856C30.8036 100.958 23.2412 96.5058 20.3773 89.2002C17.5266 81.8945 18.424 78.2483 18.3712 73.6906C18.3185 69.1328 17.685 65.3809 14.8342 62.0385C11.9835 58.6962 8.11652 55.2085 8.48606 56.5824C8.8556 57.9564 11.4424 66.2132 11.6535 67.1644C11.8647 68.1156 12.551 70.0179 11.4952 69.2781C10.4393 68.5383 8.8556 67.2701 9.48909 69.3838C10.1226 71.4975 10.9145 77.5349 11.9175 81.1944C12.9205 84.8406 14.6099 87.8659 13.1845 87.1789C11.7591 86.4919 9.26473 85.0652 10.281 88.2886C11.2972 91.5121 14.7286 98.2893 18.0545 101.367C20.7469 103.851 24.9174 106.401 28.296 107.444C31.5295 108.713 34.8818 109.373 38.1416 109.519C44.0147 109.77 49.9669 109.664 55.8531 109.585C59.6013 109.532 63.3495 109.558 67.0845 109.307C69.051 109.175 70.5555 108.792 72.324 107.92C72.6012 107.788 72.8388 107.656 73.0235 107.511C75.9271 108.951 78.6854 108.224 82.1696 108.409C87.4224 108.7 90.7878 110.43 96.2254 108.369C104.118 105.384 107.219 98.0251 106.48 89.94C106.071 85.4351 104.474 80.1771 107.259 76.1346C108.209 74.7474 111.113 72.1845 109.093 70.5728L109.133 70.5464Z"
                        fill="#253B59"></path>
                    <path
                        d="M48.7131 18.4821C48.4491 20.543 45.7304 20.1599 46.0471 18.099C46.3111 16.0381 49.0298 16.4212 48.7131 18.4821Z"
                        fill="white"></path>
                    <path
                        d="M61.1457 20.2259C60.8817 22.2868 58.163 21.9037 58.4797 19.8428C58.7437 17.7819 61.4624 18.165 61.1457 20.2259Z"
                        fill="white"></path>
                    <path
                        d="M77.1284 54.1516C77.8807 55.4463 76.1518 56.4239 75.4259 55.116C74.6737 53.8213 76.4026 52.8437 77.1284 54.1516Z"
                        fill="white"></path>
                    <path
                        d="M83.8326 51.2716C84.5848 52.5663 82.8559 53.5439 82.13 52.236C81.3778 50.9413 83.1067 49.9637 83.8326 51.2716Z"
                        fill="white"></path>
                    <path
                        d="M82.064 55.0103C82.064 55.0103 82.0376 54.9971 82.0244 54.9839C82.0112 54.9839 81.998 54.9574 81.9716 54.9442C81.9716 54.9442 81.9716 54.9442 81.9584 54.9442C81.7076 54.8385 81.2193 54.8914 80.731 55.1028C80.2295 55.3273 79.8731 55.6444 79.7939 55.9086C79.7939 55.9086 79.7939 55.9086 79.7939 55.9218C79.7939 55.9218 79.7939 55.9483 79.7939 55.9615C79.7939 55.9879 79.7939 56.0143 79.7939 56.0407C79.7939 56.0672 79.7939 56.1068 79.8071 56.1332C79.8995 56.371 80.2031 56.6088 80.6254 56.7277C80.9026 56.807 81.1665 56.807 81.3645 56.7541C81.4173 56.7541 81.4701 56.7277 81.5229 56.6881C81.5493 56.6749 81.5889 56.6617 81.6152 56.6352C81.7868 56.5163 81.9452 56.3182 82.064 56.0672C82.2751 55.6312 82.2619 55.182 82.064 54.9971V55.0103Z"
                        fill="white"></path>
                    <path
                        d="M58.1495 28.8527C58.0703 28.813 57.9911 28.8395 57.9384 28.9055L57.8196 29.0641C57.5292 29.4472 57.2521 29.8171 56.8693 30.1077C56.4338 30.4248 55.9323 30.6229 55.4044 30.6626C54.3089 30.7286 53.3191 30.0549 53.0156 28.9848C52.8836 28.5092 52.8704 27.994 52.8704 27.492C52.8704 27.4259 52.8704 27.3466 52.8704 27.2806C52.91 27.2542 52.9496 27.2277 52.9892 27.2013C53.1343 27.0824 53.2399 26.9239 53.3851 26.805C53.5963 26.6465 53.8734 26.5936 54.1242 26.5011C54.5597 26.3294 54.9424 25.9991 55.1404 25.5632C55.3252 25.1272 55.2988 24.5988 55.0348 24.2156C54.8237 23.8986 54.4673 23.6872 54.0846 23.5815C53.8074 23.5023 53.3059 23.4626 52.8836 23.423C52.5272 23.3437 52.1973 23.2909 51.8277 23.3041C51.445 23.3041 51.0491 23.4362 50.7587 23.6872C50.4024 24.0043 50.244 24.5063 50.3232 24.9687C50.3892 25.431 50.6795 25.8538 51.0623 26.1312C51.2866 26.2898 51.5374 26.4087 51.709 26.62C51.8277 26.7653 51.8805 26.9503 51.9861 27.0956C51.9861 27.0956 51.9993 27.1088 52.0125 27.122C51.9861 27.2277 51.9597 27.3334 51.9333 27.4391C51.7882 28.0072 51.643 28.5752 51.313 29.0641C50.9435 29.6189 50.3496 29.9756 49.6633 30.0549C48.9374 30.1341 48.2379 29.9096 47.6836 29.4207C47.1953 28.9848 46.9445 28.4167 46.6806 27.8222V27.7826C46.6278 27.7033 46.5354 27.6505 46.443 27.6637C46.3506 27.6769 46.2979 27.7562 46.2979 27.8619C46.2979 28.5752 46.7202 29.1962 46.9709 29.5C47.3801 30.002 47.9344 30.3719 48.5679 30.5569C48.8978 30.6494 49.2278 30.7022 49.5445 30.7022C50.574 30.7022 51.4846 30.2134 52.0257 29.3283C52.1049 29.183 52.1841 29.0376 52.2501 28.8791C52.3821 29.5661 52.6988 30.2662 53.3587 30.7286C53.8734 31.0853 54.4937 31.2571 55.1404 31.2571C55.7739 31.2571 56.4206 31.0853 56.9749 30.7286C57.6348 30.3059 58.1231 29.685 58.2683 29.0773C58.2947 28.9848 58.2419 28.9055 58.1627 28.8659L58.1495 28.8527Z"
                        fill="white"></path>
                    <path
                        d="M115.771 99.7689V109.334C115.771 112.94 112.841 115.873 109.238 115.873H99.6831V118H109.238C114.016 118 117.896 114.116 117.896 109.334V99.7689H115.771Z"
                        fill="#253B59"></path>
                    <path
                        d="M2.12485 18.2311V8.66637C2.12485 5.05979 5.05478 2.12696 8.65779 2.12696H18.213V0H8.65779C3.88017 0 0 3.88401 0 8.66637V18.2311H2.12485Z"
                        fill="#253B59"></path>
                    <path
                        d="M99.6699 2.12696H109.225C112.828 2.12696 115.758 5.05979 115.758 8.66637V18.2311H117.883V8.66637C117.883 3.88401 114.003 0 109.225 0H99.6699V2.12696Z"
                        fill="#253B59"></path>
                    <path
                        d="M18.213 115.886H8.65779C5.05478 115.886 2.12485 112.953 2.12485 109.347V99.7821H0V109.347C0 114.129 3.88017 118.013 8.65779 118.013H18.213V115.886Z"
                        fill="#253B59"></path>
                    <path
                        d="M144.186 72.3827C143.804 67.7324 143.566 25.3914 144.345 18.3236C149.532 17.8612 158.598 17.5441 164.34 17.5441C179.992 17.5441 188.28 25.1404 188.28 37.2416C188.28 51.8925 180.771 57.8639 164.498 57.8639H162.558C162.479 64.9978 162.558 71.2069 162.096 72.0524C161.792 72.6733 144.279 72.9772 144.2 72.3563L144.186 72.3827ZM165.567 43.213C169.13 43.213 171.836 41.8126 171.836 38.4042C171.836 34.5994 168.589 33.2916 164.947 33.2916C164.326 33.2916 162.861 33.2916 162.162 33.4501C162.241 36.3961 162.162 40.1216 162.083 43.0676C162.941 43.1469 164.485 43.2262 165.567 43.2262V43.213Z"
                        fill="#FC435B"></path>
                    <path
                        d="M210.677 61.2062C214.24 61.2062 217.184 59.9644 219.044 59.0396C219.968 60.1229 223.611 67.8778 223.69 69.1196C221.526 71.0616 216.022 73.3074 209.898 73.3074C194.642 73.3074 189.217 63.4521 189.217 53.5307C189.217 42.9884 195.882 32.8292 208.592 32.8292C219.44 32.8292 225.709 41.1256 225.709 49.9637C225.709 52.4474 225.472 54.6932 225.01 56.2521C220.985 56.7938 208.037 56.7938 203.854 56.7145C203.854 59.4228 205.635 61.2062 210.677 61.2062ZM212.38 48.1803C212.38 45.6173 211.218 43.1337 208.579 43.1337C205.715 43.1337 203.695 45.155 203.695 48.3256L212.366 48.167L212.38 48.1803Z"
                        fill="#FC435B"></path>
                    <path
                        d="M247.657 56.4767C247.657 58.4187 248.977 59.6606 250.759 59.6606C252.923 59.6606 254.56 58.1149 255.642 58.2602C256.724 58.4055 258.664 67.1776 258.744 69.1989C258.744 69.1989 255.8 73.1489 246.971 73.1489C237.442 73.1489 232.48 68.2609 232.48 60.2022C232.48 56.8731 232.717 45.2342 232.717 45.155C232.717 45.0757 228.692 45.2342 228.296 44.7719C227.9 44.3095 227.993 33.2916 228.296 33.2916C228.6 33.2916 233.021 33.4501 233.259 33.133C233.496 32.816 232.955 24.9158 233.641 24.2157C234.328 23.5155 247.671 22.5907 248.053 22.9738C248.436 23.3569 247.895 33.5162 248.053 33.4369C248.212 33.3576 255.259 32.816 256.038 34.0578C256.817 35.2996 256.196 44.8379 256.196 44.8379C255.655 45.9212 247.75 45.0757 247.75 45.7627C247.75 46.2251 247.671 52.5927 247.671 56.4635L247.657 56.4767Z"
                        fill="#FC435B"></path>
                    <path
                        d="M262.32 69.9783C261.542 69.1196 265.343 58.7358 266.042 58.9604C267.283 59.3435 272.39 62.8444 277.194 62.8444C279.214 62.8444 280.296 62.2235 280.296 61.2194C280.296 60.2815 279.676 59.436 275.109 58.6565C266.663 57.1901 262.637 53.1476 262.637 46.6346C262.637 37.6379 268.378 32.5914 278.448 32.5914C285.575 32.5914 292.939 34.9958 293.705 35.8413C294.484 36.6207 290.524 46.4628 289.825 46.5421C289.442 46.6214 284.018 43.7546 279.979 43.7546C278.118 43.7546 277.26 44.6794 277.26 45.6173C277.26 46.5553 278.197 47.097 281.602 47.5594C291.369 48.9597 295.077 52.1303 295.077 59.8059C295.077 66.7813 290.511 73.6113 278.963 73.6113C270.978 73.6113 263.152 70.8238 262.307 69.9651L262.32 69.9783Z"
                        fill="#FC435B"></path>
                    <path
                        d="M314.742 33.2123C315.046 33.5161 314.122 71.4447 313.818 71.9864C313.515 72.528 299.723 72.2902 299.565 72.0656C299.406 71.841 298.786 34.071 299.327 33.2123C299.868 32.3536 314.439 32.9084 314.742 33.2123ZM307.22 12.9731C312.024 12.9731 315.349 16.2362 315.349 21.732C315.349 25.6028 312.024 28.7074 307.22 28.7074C302.416 28.7074 299.393 26.0652 299.393 21.1903C299.393 16.3155 300.792 12.9731 307.22 12.9731Z"
                        fill="#FC435B"></path>
                    <path
                        d="M340.689 61.2062C344.253 61.2062 347.196 59.9644 349.057 59.0396C349.98 60.1229 353.623 67.8778 353.702 69.1196C351.538 71.0616 346.034 73.3074 339.91 73.3074C324.654 73.3074 319.229 63.4521 319.229 53.5307C319.229 42.9884 325.894 32.8292 338.604 32.8292C349.453 32.8292 355.722 41.1256 355.722 49.9637C355.722 52.4474 355.484 54.6932 355.022 56.2521C350.997 56.7938 338.05 56.7938 333.866 56.7145C333.866 59.4228 335.648 61.2062 340.689 61.2062ZM342.392 48.1803C342.392 45.6173 341.23 43.1337 338.591 43.1337C335.727 43.1337 333.708 45.155 333.708 48.3256L342.379 48.167L342.392 48.1803Z"
                        fill="#FC435B"></path>
                    <path
                        d="M378.422 18.165C379.042 18.6274 378.963 69.1196 378.263 72.0656C377.881 73.6906 361.225 72.9904 361.146 72.3695C360.763 67.7192 360.526 25.3782 361.304 18.3104C364.564 17.6102 377.802 17.6894 378.422 18.1518V18.165Z"
                        fill="#44C2F1"></path>
                    <path
                        d="M439 46.0929C439 55.4727 434.816 64.6279 426.607 69.6612C429.168 73.3867 433.431 75.7118 436.915 77.4953C435.45 81.3793 427.848 88.1961 425.763 89.2002C418.794 87.0336 412.209 80.045 409.265 73.532C406.705 73.3735 404.224 72.9904 401.98 72.2902C390.749 68.8025 383.701 58.8679 383.701 44.3755C383.701 29.8831 392.531 16.8439 411.285 16.8439C428.099 16.8439 439.013 27.9279 439.013 46.0797L439 46.0929ZM411.654 32.2082C405.306 32.2082 401.967 36.9378 401.967 45.1549C401.967 54.3101 406.151 57.7185 411.337 57.7185C417.461 57.7185 421.249 52.9098 421.249 44.7718C421.249 37.4001 417.303 32.2082 411.641 32.2082H411.654Z"
                        fill="#44C2F1"></path>
                </g>
                <defs>
                    <clipPath id="clip0_3103_191">
                        <rect width="439" height="118" fill="white"></rect>
                    </clipPath>
                </defs>
            </svg>
